<?xml version="1.0" standalone="no"?>
<!DOCTYPE svg PUBLIC "-//W3C//DTD SVG 20010904//EN"
 "http://www.w3.org/TR/2001/REC-SVG-20010904/DTD/svg10.dtd">
<svg version="1.0" xmlns="http://www.w3.org/2000/svg"
 width="1182.000000pt" height="1182.000000pt" viewBox="0 0 1182.000000 1182.000000"
 preserveAspectRatio="xMidYMid meet">
<metadata>
Created by potrace 1.14, written by Peter Selinger 2001-2017
</metadata>
<g transform="translate(0.000000,1182.000000) scale(0.100000,-0.100000)"
fill="#000000" stroke="none">
<path d="M5907 11520 c-30 -66 -77 -165 -254 -540 -25 -52 -62 -131 -83 -175
-47 -100 -104 -222 -163 -345 -24 -52 -60 -129 -80 -170 -19 -41 -49 -105 -66
-141 -17 -36 -31 -71 -31 -76 0 -9 23 -60 152 -333 17 -36 71 -148 120 -249
48 -101 88 -185 88 -186 0 -1 45 -96 100 -210 55 -113 100 -208 100 -210 0 -2
40 -85 195 -410 32 -66 74 -156 95 -200 21 -44 61 -129 90 -190 29 -60 75
-157 102 -215 46 -96 85 -178 203 -425 24 -49 64 -133 88 -185 25 -52 70 -149
102 -215 31 -66 78 -163 102 -215 141 -297 193 -407 288 -605 32 -66 72 -151
90 -190 18 -38 61 -128 95 -200 34 -71 75 -157 90 -190 15 -33 56 -118 90
-190 34 -71 82 -170 105 -220 24 -49 71 -148 105 -220 34 -71 75 -157 90 -190
15 -33 64 -136 109 -229 45 -93 81 -170 81 -172 0 -1 35 -76 79 -166 43 -90
92 -192 109 -228 16 -36 57 -121 90 -190 33 -69 78 -163 100 -210 22 -47 68
-143 102 -215 34 -71 100 -209 145 -305 46 -96 109 -229 140 -295 95 -199 155
-324 210 -440 50 -106 59 -118 146 -190 13 -11 69 -58 124 -104 55 -46 122
-102 149 -125 27 -23 84 -70 125 -105 42 -34 85 -71 96 -80 160 -133 751 -627
755 -631 3 -3 46 -39 95 -80 50 -41 92 -77 95 -80 3 -3 30 -25 60 -50 30 -25
57 -47 60 -50 5 -5 166 -139 204 -170 10 -8 23 -20 30 -25 6 -6 36 -30 66 -55
30 -25 66 -55 80 -66 14 -12 48 -41 75 -64 28 -23 61 -52 75 -63 93 -80 142
-118 145 -115 4 3 -8 29 -127 277 -43 90 -78 165 -78 167 0 2 -38 83 -85 180
-47 97 -85 177 -85 179 0 2 -32 70 -71 152 -39 81 -86 182 -105 223 -19 41
-39 82 -44 91 -5 9 -58 122 -118 250 -61 129 -138 293 -172 364 -34 72 -77
162 -95 200 -18 39 -54 115 -80 170 -45 96 -61 131 -176 370 -29 61 -53 112
-53 115 -1 3 -17 37 -35 75 -19 39 -52 108 -74 155 -22 47 -70 150 -108 229
-38 79 -69 145 -69 146 0 2 -40 87 -90 190 -49 103 -90 188 -90 190 0 2 -32
70 -71 152 -39 81 -84 175 -99 208 -15 33 -54 114 -85 180 -31 66 -72 152 -90
190 -18 39 -59 124 -90 190 -31 66 -90 190 -130 275 -40 85 -93 198 -118 250
-24 52 -84 178 -132 280 -48 102 -109 230 -135 285 -72 152 -218 460 -260 550
-21 44 -61 130 -90 190 -110 231 -158 334 -250 530 -21 44 -61 130 -90 190
-55 115 -100 212 -168 355 -58 124 -128 272 -179 380 -25 52 -63 131 -83 175
-55 117 -109 231 -189 399 -39 82 -71 150 -71 151 0 1 -35 76 -79 166 -43 90
-90 189 -104 219 -14 30 -48 105 -77 165 -29 61 -69 146 -90 190 -20 44 -59
125 -85 180 -54 113 -99 209 -208 440 -41 88 -109 231 -151 319 -42 87 -76
160 -76 162 0 1 -36 78 -80 170 -44 91 -80 168 -80 169 0 1 -41 87 -91 191
-49 104 -96 202 -104 219 l-14 29 -34 -74z"/>
<path d="M4464 8464 c-16 -33 -29 -61 -30 -64 0 -3 -24 -54 -53 -115 -85 -175
-248 -515 -331 -690 -26 -55 -76 -158 -110 -230 -34 -71 -82 -170 -105 -220
-83 -174 -143 -301 -210 -440 -37 -77 -87 -180 -110 -230 -65 -137 -145 -305
-220 -460 -67 -140 -120 -251 -200 -420 -23 -49 -72 -151 -108 -225 -35 -74
-85 -178 -110 -230 -50 -106 -127 -266 -224 -470 -36 -74 -84 -175 -108 -225
-85 -178 -144 -302 -205 -430 -128 -267 -193 -402 -230 -480 -39 -84 -105
-222 -210 -440 -34 -71 -79 -166 -100 -210 -21 -44 -66 -138 -100 -210 -93
-193 -167 -349 -215 -450 -23 -49 -76 -160 -118 -245 -41 -85 -91 -191 -112
-235 -21 -44 -67 -141 -103 -215 -36 -74 -86 -180 -112 -235 -26 -55 -74 -154
-105 -220 -32 -66 -79 -165 -105 -220 -26 -55 -76 -158 -110 -230 -34 -71 -84
-177 -111 -235 -27 -58 -54 -113 -60 -123 -6 -11 -9 -20 -7 -22 2 -2 216 163
450 348 18 14 83 65 143 112 61 47 117 91 125 98 8 7 44 35 80 62 36 28 67 52
70 55 3 3 34 28 70 55 35 28 71 55 80 62 65 51 148 116 160 126 8 7 262 205
564 441 l548 430 250 505 c284 574 598 1209 973 1966 141 286 351 709 465 940
114 231 334 676 489 989 l281 568 -53 102 c-72 134 -146 275 -252 481 -48 94
-114 220 -145 280 -32 61 -85 162 -118 225 -122 236 -206 396 -218 414 -11 16
-15 13 -40 -40z"/>
</g>
</svg>
